<?xml version="1.0" encoding="UTF-8"?>
<svg xmlns="http://www.w3.org/2000/svg" xmlns:xlink="http://www.w3.org/1999/xlink" width="30pt" height="30pt" viewBox="0 0 30 30" version="1.1">
<g id="surface1">
<path style=" stroke:none;fill-rule:nonzero;fill:rgb(8.627451%,62.745098%,52.156863%);fill-opacity:1;" d="M 9.300781 2.640625 C 5.699219 4.320312 4.078125 6 2.460938 9.601562 C 0.300781 14.339844 1.320312 20.578125 4.980469 24.539062 C 6.960938 26.699219 11.878906 28.800781 15 28.800781 C 18.121094 28.800781 23.039062 26.699219 25.019531 24.539062 C 27.058594 22.320312 28.800781 17.941406 28.800781 15 C 28.800781 11.878906 26.699219 6.960938 24.539062 4.980469 C 22.320312 2.941406 17.941406 1.199219 15 1.199219 C 13.378906 1.199219 11.101562 1.800781 9.300781 2.640625 Z M 13.199219 10.019531 C 13.199219 10.261719 12.359375 11.339844 11.28125 12.421875 L 9.359375 14.398438 L 16.078125 14.398438 C 20.160156 14.398438 22.800781 14.640625 22.800781 15 C 22.800781 15.359375 20.160156 15.601562 16.078125 15.601562 L 9.359375 15.601562 L 11.398438 17.699219 C 12.480469 18.839844 13.199219 19.980469 12.960938 20.21875 C 12.78125 20.460938 11.28125 19.378906 9.71875 17.820312 L 6.960938 15 L 9.601562 12.300781 C 12.121094 9.78125 13.199219 9.058594 13.199219 10.019531 Z M 13.199219 10.019531 "/>
</g>
</svg>
