<?xml version="1.0" encoding="UTF-8"?>
<svg xmlns="http://www.w3.org/2000/svg" xmlns:xlink="http://www.w3.org/1999/xlink" width="25pt" height="25pt" viewBox="0 0 25 25" version="1.1">
<g id="surface1">
<path style=" stroke:none;fill-rule:nonzero;fill:rgb(96.078431%,73.72549%,0%);fill-opacity:1;" d="M 20.3125 12.5 C 20.3125 16.816406 16.816406 20.3125 12.5 20.3125 C 8.183594 20.3125 4.6875 16.816406 4.6875 12.5 C 4.6875 8.183594 8.183594 4.6875 12.5 4.6875 C 16.816406 4.6875 20.3125 8.183594 20.3125 12.5 Z M 20.3125 12.5 "/>
<path style=" stroke:none;fill-rule:nonzero;fill:rgb(96.078431%,73.72549%,0%);fill-opacity:1;" d="M 16.171875 7.339844 L 19.140625 4.371094 L 20.613281 5.84375 L 17.644531 8.8125 Z M 16.171875 7.339844 "/>
<path style=" stroke:none;fill-rule:nonzero;fill:rgb(96.078431%,73.72549%,0%);fill-opacity:1;" d="M 11.457031 2.050781 L 13.542969 2.050781 L 13.542969 6.25 L 11.457031 6.25 Z M 11.457031 2.050781 "/>
<path style=" stroke:none;fill-rule:nonzero;fill:rgb(96.078431%,73.72549%,0%);fill-opacity:1;" d="M 18.734375 11.441406 L 22.933594 11.441406 L 22.933594 13.523438 L 18.734375 13.523438 Z M 18.734375 11.441406 "/>
<path style=" stroke:none;fill-rule:nonzero;fill:rgb(96.078431%,73.72549%,0%);fill-opacity:1;" d="M 16.171875 17.628906 L 17.644531 16.15625 L 20.613281 19.125 L 19.140625 20.597656 Z M 16.171875 17.628906 "/>
<path style=" stroke:none;fill-rule:nonzero;fill:rgb(96.078431%,73.72549%,0%);fill-opacity:1;" d="M 11.457031 18.714844 L 13.542969 18.714844 L 13.542969 22.917969 L 11.457031 22.917969 Z M 11.457031 18.714844 "/>
<path style=" stroke:none;fill-rule:nonzero;fill:rgb(96.078431%,73.72549%,0%);fill-opacity:1;" d="M 4.386719 19.125 L 7.355469 16.15625 L 8.828125 17.628906 L 5.859375 20.597656 Z M 4.386719 19.125 "/>
<path style=" stroke:none;fill-rule:nonzero;fill:rgb(96.078431%,73.72549%,0%);fill-opacity:1;" d="M 2.066406 11.441406 L 6.265625 11.441406 L 6.265625 13.523438 L 2.066406 13.523438 Z M 2.066406 11.441406 "/>
<path style=" stroke:none;fill-rule:nonzero;fill:rgb(96.078431%,73.72549%,0%);fill-opacity:1;" d="M 4.386719 5.84375 L 5.859375 4.371094 L 8.828125 7.339844 L 7.355469 8.8125 Z M 4.386719 5.84375 "/>
<path style=" stroke:none;fill-rule:nonzero;fill:rgb(92.156863%,47.45098%,0%);fill-opacity:1;" d="M 18.734375 13.523438 L 20.238281 13.523438 C 20.28125 13.1875 20.3125 12.847656 20.3125 12.5 C 20.3125 12.140625 20.28125 11.789062 20.234375 11.441406 L 18.734375 11.441406 Z M 18.734375 13.523438 "/>
<path style=" stroke:none;fill-rule:nonzero;fill:rgb(92.156863%,47.45098%,0%);fill-opacity:1;" d="M 17.222656 6.289062 L 16.171875 7.339844 L 17.644531 8.8125 L 18.699219 7.757812 C 18.273438 7.203125 17.777344 6.710938 17.222656 6.289062 Z M 17.222656 6.289062 "/>
<path style=" stroke:none;fill-rule:nonzero;fill:rgb(92.156863%,47.45098%,0%);fill-opacity:1;" d="M 13.542969 4.765625 C 13.199219 4.71875 12.855469 4.6875 12.5 4.6875 C 12.144531 4.6875 11.800781 4.71875 11.457031 4.765625 L 11.457031 6.25 L 13.542969 6.25 Z M 13.542969 4.765625 "/>
<path style=" stroke:none;fill-rule:nonzero;fill:rgb(92.156863%,47.45098%,0%);fill-opacity:1;" d="M 17.644531 16.15625 L 16.171875 17.628906 L 17.242188 18.699219 C 17.796875 18.273438 18.289062 17.777344 18.710938 17.222656 Z M 17.644531 16.15625 "/>
<path style=" stroke:none;fill-rule:nonzero;fill:rgb(92.156863%,47.45098%,0%);fill-opacity:1;" d="M 11.457031 20.234375 C 11.800781 20.28125 12.144531 20.3125 12.5 20.3125 C 12.855469 20.3125 13.199219 20.28125 13.542969 20.234375 L 13.542969 18.714844 L 11.457031 18.714844 Z M 11.457031 20.234375 "/>
<path style=" stroke:none;fill-rule:nonzero;fill:rgb(92.156863%,47.45098%,0%);fill-opacity:1;" d="M 6.285156 17.222656 C 6.710938 17.777344 7.203125 18.273438 7.757812 18.699219 L 8.828125 17.628906 L 7.355469 16.15625 Z M 6.285156 17.222656 "/>
<path style=" stroke:none;fill-rule:nonzero;fill:rgb(92.156863%,47.45098%,0%);fill-opacity:1;" d="M 4.761719 13.523438 L 6.265625 13.523438 L 6.265625 11.441406 L 4.765625 11.441406 C 4.71875 11.789062 4.6875 12.140625 4.6875 12.5 C 4.6875 12.847656 4.71875 13.1875 4.761719 13.523438 Z M 4.761719 13.523438 "/>
<path style=" stroke:none;fill-rule:nonzero;fill:rgb(92.156863%,47.45098%,0%);fill-opacity:1;" d="M 6.300781 7.757812 L 7.355469 8.8125 L 8.828125 7.339844 L 7.777344 6.285156 C 7.222656 6.710938 6.726562 7.203125 6.300781 7.757812 Z M 6.300781 7.757812 "/>
<path style=" stroke:none;fill-rule:nonzero;fill:rgb(96.078431%,73.72549%,0%);fill-opacity:1;" d="M 16.171875 7.339844 L 19.140625 4.371094 L 20.613281 5.84375 L 17.644531 8.8125 Z M 16.171875 7.339844 "/>
<path style=" stroke:none;fill-rule:nonzero;fill:rgb(96.078431%,73.72549%,0%);fill-opacity:1;" d="M 11.457031 2.050781 L 13.542969 2.050781 L 13.542969 6.25 L 11.457031 6.25 Z M 11.457031 2.050781 "/>
<path style=" stroke:none;fill-rule:nonzero;fill:rgb(96.078431%,73.72549%,0%);fill-opacity:1;" d="M 18.734375 11.441406 L 22.933594 11.441406 L 22.933594 13.523438 L 18.734375 13.523438 Z M 18.734375 11.441406 "/>
<path style=" stroke:none;fill-rule:nonzero;fill:rgb(96.078431%,73.72549%,0%);fill-opacity:1;" d="M 16.171875 17.628906 L 17.644531 16.15625 L 20.613281 19.125 L 19.140625 20.597656 Z M 16.171875 17.628906 "/>
<path style=" stroke:none;fill-rule:nonzero;fill:rgb(96.078431%,73.72549%,0%);fill-opacity:1;" d="M 11.457031 18.714844 L 13.542969 18.714844 L 13.542969 22.917969 L 11.457031 22.917969 Z M 11.457031 18.714844 "/>
<path style=" stroke:none;fill-rule:nonzero;fill:rgb(96.078431%,73.72549%,0%);fill-opacity:1;" d="M 4.386719 19.125 L 7.355469 16.15625 L 8.828125 17.628906 L 5.859375 20.597656 Z M 4.386719 19.125 "/>
<path style=" stroke:none;fill-rule:nonzero;fill:rgb(96.078431%,73.72549%,0%);fill-opacity:1;" d="M 2.066406 11.441406 L 6.265625 11.441406 L 6.265625 13.523438 L 2.066406 13.523438 Z M 2.066406 11.441406 "/>
<path style=" stroke:none;fill-rule:nonzero;fill:rgb(96.078431%,73.72549%,0%);fill-opacity:1;" d="M 4.386719 5.84375 L 5.859375 4.371094 L 8.828125 7.339844 L 7.355469 8.8125 Z M 4.386719 5.84375 "/>
<path style=" stroke:none;fill-rule:nonzero;fill:rgb(92.156863%,47.45098%,0%);fill-opacity:1;" d="M 18.734375 13.523438 L 20.238281 13.523438 C 20.28125 13.1875 20.3125 12.847656 20.3125 12.5 C 20.3125 12.140625 20.28125 11.789062 20.234375 11.441406 L 18.734375 11.441406 Z M 18.734375 13.523438 "/>
<path style=" stroke:none;fill-rule:nonzero;fill:rgb(92.156863%,47.45098%,0%);fill-opacity:1;" d="M 17.222656 6.289062 L 16.171875 7.339844 L 17.644531 8.8125 L 18.699219 7.757812 C 18.273438 7.203125 17.777344 6.710938 17.222656 6.289062 Z M 17.222656 6.289062 "/>
<path style=" stroke:none;fill-rule:nonzero;fill:rgb(92.156863%,47.45098%,0%);fill-opacity:1;" d="M 13.542969 4.765625 C 13.199219 4.71875 12.855469 4.6875 12.5 4.6875 C 12.144531 4.6875 11.800781 4.71875 11.457031 4.765625 L 11.457031 6.25 L 13.542969 6.25 Z M 13.542969 4.765625 "/>
<path style=" stroke:none;fill-rule:nonzero;fill:rgb(92.156863%,47.45098%,0%);fill-opacity:1;" d="M 17.644531 16.15625 L 16.171875 17.628906 L 17.242188 18.699219 C 17.796875 18.273438 18.289062 17.777344 18.710938 17.222656 Z M 17.644531 16.15625 "/>
<path style=" stroke:none;fill-rule:nonzero;fill:rgb(92.156863%,47.45098%,0%);fill-opacity:1;" d="M 11.457031 20.234375 C 11.800781 20.28125 12.144531 20.3125 12.5 20.3125 C 12.855469 20.3125 13.199219 20.28125 13.542969 20.234375 L 13.542969 18.714844 L 11.457031 18.714844 Z M 11.457031 20.234375 "/>
<path style=" stroke:none;fill-rule:nonzero;fill:rgb(92.156863%,47.45098%,0%);fill-opacity:1;" d="M 6.285156 17.222656 C 6.710938 17.777344 7.203125 18.273438 7.757812 18.699219 L 8.828125 17.628906 L 7.355469 16.15625 Z M 6.285156 17.222656 "/>
<path style=" stroke:none;fill-rule:nonzero;fill:rgb(92.156863%,47.45098%,0%);fill-opacity:1;" d="M 4.761719 13.523438 L 6.265625 13.523438 L 6.265625 11.441406 L 4.765625 11.441406 C 4.71875 11.789062 4.6875 12.140625 4.6875 12.5 C 4.6875 12.847656 4.71875 13.1875 4.761719 13.523438 Z M 4.761719 13.523438 "/>
<path style=" stroke:none;fill-rule:nonzero;fill:rgb(92.156863%,47.45098%,0%);fill-opacity:1;" d="M 6.300781 7.757812 L 7.355469 8.8125 L 8.828125 7.339844 L 7.777344 6.285156 C 7.222656 6.710938 6.726562 7.203125 6.300781 7.757812 Z M 6.300781 7.757812 "/>
</g>
</svg>
