<?xml version="1.0" standalone="no"?>
<!DOCTYPE svg PUBLIC "-//W3C//DTD SVG 20010904//EN"
 "http://www.w3.org/TR/2001/REC-SVG-20010904/DTD/svg10.dtd">
<svg version="1.0" xmlns="http://www.w3.org/2000/svg"
 width="50.000000pt" height="50.000000pt" viewBox="0 0 50.000000 50.000000"
 preserveAspectRatio="xMidYMid meet">
<metadata>
Created by potrace 1.16, written by Peter Selinger 2001-2019
</metadata>
<g transform="translate(0.000000,50.000000) scale(0.009766,-0.009766)"
fill="#000000" stroke="none">
<path d="M0 2560 l0 -2560 2560 0 2560 0 0 2560 0 2560 -2560 0 -2560 0 0
-2560z m2875 1930 c224 -24 245 -27 245 -39 0 -5 -57 -52 -126 -106 -232 -179
-361 -326 -464 -530 -172 -338 -154 -766 44 -1104 277 -471 836 -702 1342
-555 161 46 239 85 488 243 71 44 131 80 133 77 5 -5 -73 -356 -103 -457 -173
-595 -610 -1071 -1179 -1284 -1114 -418 -2341 246 -2599 1406 -232 1047 433
2088 1485 2323 226 50 426 57 734 26z"/>
</g>
</svg>
